<?xml version="1.0" standalone="no"?>
<!DOCTYPE svg PUBLIC "-//W3C//DTD SVG 1.1//EN" "http://www.w3.org/Graphics/SVG/1.1/DTD/svg11.dtd" >
<svg xmlns="http://www.w3.org/2000/svg">
<metadata></metadata>
<defs>
<font id="groteskmedium" horiz-adv-x="1314" >
<font-face units-per-em="2048" ascent="1638" descent="-410" />
<missing-glyph horiz-adv-x="409" />
<glyph horiz-adv-x="0" />
<glyph horiz-adv-x="682" />
<glyph unicode=" "  horiz-adv-x="409" />
<glyph unicode="&#x09;" horiz-adv-x="409" />
<glyph unicode="&#xa0;" horiz-adv-x="409" />
<glyph unicode="!" horiz-adv-x="2048" d="M849 174q0 73 51 124t124 51q72 0 123.5 -51t51.5 -124q0 -72 -51.5 -123t-123.5 -51q-73 0 -124 51t-51 123zM915 435v11v969v11v12h11h12h206h12v-12v-968v-23h-12h-206h-12h-11zM1144 555v218v-218z" />
<glyph unicode="-" horiz-adv-x="2048" d="M686 450v12v11v195v12v11h11h12h642h11v-11v-207v-23h-11h-642h-12h-11z" />
<glyph unicode="." horiz-adv-x="2048" d="M849 175q0 72 51 123.5t124 51.5q72 0 123.5 -51.5t51.5 -123.5t-51.5 -123.5t-123.5 -51.5q-73 0 -124 51.5t-51 123.5z" />
<glyph unicode="0" horiz-adv-x="1665" d="M332 501q0 134 65 248t177.5 182t245.5 71h13q136 0 252 -67t183 -182.5t67 -251.5t-67 -251.5t-183 -182.5t-252 -67t-251.5 67t-182.5 182.5t-67 251.5zM549 501q0 -117 83 -200.5t201 -83.5q117 0 200.5 83.5t83.5 200.5q0 118 -83.5 201t-200.5 83q-118 0 -201 -83 t-83 -201z" />
<glyph unicode="1" horiz-adv-x="1175" d="M324 979v23h5l212 319v8h23h195h12h11v-12v-11v-1283v-23h-11h-207h-23v12v967h-206h-11z" />
<glyph unicode="2" horiz-adv-x="1497" d="M332 4l3 10v9h3l214 643v10h3l1 3l10 -3h95h12q85 0 145.5 60t60.5 146t-60.5 146t-145.5 60h-12h-195h-11h-12v12v206v11v12h12h11h207h11v-1q181 -5 308.5 -134.5t127.5 -311.5q0 -172 -116 -299.5t-286 -144.5l-66 -198h456h12v-11v-206v-23h-12h-536l-1 -3l-9 3h-207 l-1 -3l-10 3h-9v3z" />
<glyph unicode="3" horiz-adv-x="1579" d="M354 1088v12v206v11v12h12h11h315h12v-1q136 -5 231 -102.5t95 -234.5q0 -77 -32 -144q113 -56 181 -163t68 -237q0 -182 -126.5 -312t-308.5 -135h-11h-109h-206h-12h-11v12v205v12v11h11h12h86h120h12h97q85 0 145.5 60.5t60.5 146.5q0 85 -60.5 145.5t-145.5 60.5 h-270l258 14q-42 -13 -85 -14h-12h-206h-12h-11v11v206v12v11h11h12h206q40 0 68.5 28.5t28.5 69.5t-28.5 69t-68.5 28h-109h-206h-11h-12z" />
<glyph unicode="4" horiz-adv-x="1572" d="M339 435v23h2l108 860v11h1v1l11 -1h206v1l11 -1h11v-2h1l-1 -10v-11h-1l-79 -630h275v303v12v11h11h12h206h11v-11v-315h98h11v-12v-206v-23h-11h-98v-412v-23h-11h-12h-194h-12h-11v12v423h-533h-12z" />
<glyph unicode="5" horiz-adv-x="1585" d="M359 435v241v-12v-206v-23zM445 0v11v206v12v11h23h304h11q85 0 145.5 60.5t60.5 146.5q0 85 -60 145.5t-145 60.5h-12h-98h-206h-23v11v642v11v12h12h11h642h11v-12v-206v-23h-11h-424v-195h97h12q181 -5 308 -134.5t127 -311.5q0 -183 -127 -312.5t-308 -134.5h-12 h-315h-11h-12z" />
<glyph unicode="6" horiz-adv-x="1677" d="M344 652v23h6l324 648v8h5l2 4l8 -4h207l2 4l8 -4h9v-4l4 -2l-4 -8v-9h-4l-212 -422q38 8 85 10h11h108h12q182 -5 308.5 -134.5t126.5 -311.5t-126.5 -312t-308.5 -135h-12h-108h-11q-181 5 -308.5 135t-127.5 312q0 108 48 202h-31h-1h-8h-12zM565 450q0 -92 64 -158.5 t155 -71.5h11h97h11h12q91 5 154.5 71.5t63.5 158.5q0 91 -63.5 157t-154.5 71v1h-12h-11h-97h-11v-1q-91 -5 -155 -71t-64 -157z" />
<glyph unicode="7" horiz-adv-x="1460" d="M332 1090v12v206v11v12h23h533h217h12v-23h-3l-324 -1296v-10h-2l-1 -3l-10 3h-207v-3l-10 3h-10v3h-3l3 10v10h3l266 1065h-464h-23z" />
<glyph unicode="8" horiz-adv-x="1738" d="M367 447q0 -182 127 -312t308 -135h12h11h86h12h11q181 5 308.5 135t127.5 312t-127.5 311.5t-308.5 134.5h-11h-109h-12q-181 -5 -308 -134.5t-127 -311.5zM367 870h23h194h11h12v12q0 85 60.5 145.5t146.5 60.5h11h98q85 0 145 -60t60 -146v-12h12h11h196h11h12v12v11 h-1q-4 178 -130.5 304t-304.5 131v1h-11h-109h-12v-1q-178 -5 -304.5 -131t-130.5 -304v-11v-12zM607 447q0 85 60.5 145.5t146.5 60.5h11h98q85 0 145 -60t60 -146t-60 -146.5t-145 -60.5h-98h-11q-86 0 -146.5 61t-60.5 146zM814 1088h109v23h-109v-23zM814 1088h109v23 h-109v-23z" />
<glyph unicode="9" horiz-adv-x="1703" d="M336 882q0 182 127 311.5t308 134.5v1h12h109h11v-1q181 -5 308.5 -134.5t127.5 -311.5q0 -109 -48 -202h41h12v-23h-7l-325 -648v-9h-4l-2 -4l-8 4h-208l-2 -4l-8 4h-9v4l-4 2l4 8v9h5l212 423q-38 -8 -85 -10v-1h-11h-109h-12v1q-181 5 -308 134.5t-127 311.5zM554 882 q0 -91 63 -157.5t154 -71.5h12h11h98h11q91 5 154.5 71.5t63.5 157.5q0 92 -63.5 158t-154.5 71h-11h-98h-11h-12q-91 -5 -154 -71t-63 -158z" />
<glyph unicode=":" horiz-adv-x="2048" d="M847 638q0 72 51 123.5t124 51.5q72 0 123 -51.5t51 -123.5t-51 -123.5t-123 -51.5q-73 0 -124 51.5t-51 123.5zM847 638q0 72 51 123.5t124 51.5q72 0 123 -51.5t51 -123.5t-51 -123.5t-123 -51.5q-73 0 -124 51.5t-51 123.5zM852 175q0 72 51 123.5t124 51.5 q72 0 123 -51.5t51 -123.5t-51 -123.5t-123 -51.5q-73 0 -124 51.5t-51 123.5zM852 175q0 72 51 123.5t124 51.5q72 0 123 -51.5t51 -123.5t-51 -123.5t-123 -51.5q-73 0 -124 51.5t-51 123.5z" />
<glyph unicode=";" horiz-adv-x="2048" d="M762 -391h5l213 427v8h12h217h12v-23h-5l-213 -427v-8h-11h-218h-12v23zM936 305q0 72 51.5 123.5t124.5 51.5q72 0 123 -51.5t51 -123.5t-51 -123.5t-123 -51.5q-73 0 -124.5 51.5t-51.5 123.5z" />
<glyph unicode="?" horiz-adv-x="2048" d="M632 1197v12v206v11v12h23h303h11h12q181 -5 308 -134.5t127 -312.5q0 -182 -127 -312t-308 -135v-86v-23h-12h-205h-12h-11v12v315v11v12h23h205q86 0 146.5 60.5t60.5 145.5t-60.5 145.5t-146.5 60.5h-314h-23zM697 174q0 73 51 124t124 51q72 0 123 -51t51 -124 q0 -72 -51 -123t-123 -51q-73 0 -124 51t-51 123z" />
<glyph unicode="A" horiz-adv-x="1697" d="M287 1l3 10v9h3l432 1297v9h4v3l10 -3h213l9 3l2 -3h3v-9l432 -1297h3v-10l3 -9l-3 -1v-3h-9l-10 -3l-1 3h-207l-9 -3l-1 3h-3v10l-106 316h-419l-105 -316v-10h-3l-1 -3l-9 3h-208l-1 -3l-10 3h-9v3zM716 564h21h217h21l-129 387z" />
<glyph unicode="B" horiz-adv-x="1613" d="M391 3v11v12v1283v12v11h12h11h207h11q181 -5 308 -135t127 -312q0 -26 -3 -50q101 -60 161 -162t60 -223q0 -182 -127 -312t-308 -135h-12h-206h-11h-207h-11h-12zM632 243h206q85 0 145.5 60.5t60.5 146.5q0 96 -74 158q-60 -77 -148.5 -122t-189.5 -47v-196zM632 679 q82 5 138.5 64t56.5 142q0 82 -57 141.5t-138 64.5v-412z" />
<glyph unicode="C" horiz-adv-x="1609" d="M340 664q0 134 51.5 256t139 211t209 142.5t254.5 55.5h11h12h205h12v-11v-207v-23h-12h-217q-175 0 -299.5 -124t-124.5 -300t124.5 -300t299.5 -124h217h12v-11v-206v-23h-12h-205h-12h-11q-178 3 -328.5 92.5t-238 241t-87.5 330.5z" />
<glyph unicode="D" horiz-adv-x="1634" d="M391 0v12v1294v12v11h23h195h12h11q178 -3 328 -92.5t237.5 -242t87.5 -330.5t-87.5 -330t-237.5 -241.5t-328 -92.5h-11h-119h-88h-11h-12zM632 241q172 5 292.5 128t120.5 295t-120.5 295.5t-292.5 128.5v-847z" />
<glyph unicode="E" horiz-adv-x="1441" d="M391 0v12v11v1283v12v11h12h11h206h12h423h12v-11v-207v-23h-12h-423v-303h314h12v-12v-206v-23h-12h-314v-304h423h12v-11v-206v-23h-12h-435h-206h-11h-12z" />
<glyph unicode="F" horiz-adv-x="1437" d="M391 0v12v11v1283v12v11h12h11h206h12h423h12v-11v-207v-23h-12h-423v-303h423h12v-12v-206v-23h-12h-423v-521v-23h-12h-206h-11h-12z" />
<glyph unicode="G" horiz-adv-x="1626" d="M340 665q0 134 51.5 256t139 211t209 142.5t254.5 55.5h11h12h205h12v-11v-207v-23h-12h-217q-175 0 -299.5 -124.5t-124.5 -299.5q0 -172 120.5 -295t291.5 -128v301v4v5h11h12h206h12v-5v-306v-11v-206v-23h-12h-205h-1h-11h-1h-10h-1q-178 3 -328 93t-237.5 241.5 t-87.5 329.5z" />
<glyph unicode="H" horiz-adv-x="1679" d="M391 0v12v11v1283v12v11h12h11h206h12v-11v-533h412v521v12v11h11h12h207h11v-11v-1295v-23h-11h-207h-12h-11v12v532h-412v-521v-23h-12h-206h-11h-12z" />
<glyph unicode="I" horiz-adv-x="1026" d="M391 2v12v11v1283v11v12h12h11h207h11v-12v-1294v-23h-11h-207h-11h-12z" />
<glyph unicode="J" horiz-adv-x="1394" d="M327 220v11v12v194v12v11h12h11h207h11v-11v-206v-12q0 -40 28.5 -68.5t69.5 -28.5q40 0 68.5 28t28.5 69v1077v12v11h11h12h206h12v-11v-1077v-12v-11q-5 -136 -103.5 -231t-234.5 -95q-137 0 -235.5 95t-103.5 231z" />
<glyph unicode="K" horiz-adv-x="1656" d="M393 2v11v1294v12v11h23h194h12h11v-11v-12v-630h90l214 644v9h11h327h11v-11v-206v-23h-11h-209l-127 -380l14 -29h1l5 -10l323 -646h4v-23h-11h-218h-11v8l-214 426h-199v-411v-23h-11h-206h-11h-12z" />
<glyph unicode="L" horiz-adv-x="1482" d="M391 0v12v11v1283v12v11h12h11h207h11v-11v-1078h533h12v-11v-206v-23h-12h-544h-207h-11h-12z" />
<glyph unicode="M" horiz-adv-x="2113" d="M391 0v12v11v1283v12v11h12h11h202h9h7v-7l423 -530l424 530v7h6h10h7h207h12v-11v-1295v-23h-12h-207h-11h-12v12v944l-303 -404v-7h-6l-3 -5l-6 5h-211l-6 -5l-3 5h-6v7l-303 404v-933v-23h-12h-206h-11h-12z" />
<glyph unicode="N" horiz-adv-x="1679" d="M391 0v12v11v1283v12v11h12h11h203l6 5l3 -5h6v-7l413 -516v500v12v11h11h12h206h11v-11v-1295v-23h-11h-206h-12h-11v12v533h-94l-6 -5l-4 5h-5v7l-304 404v-933v-23h-11h-207h-11h-12z" />
<glyph unicode="O" horiz-adv-x="2017" d="M340 664q0 135 52.5 258t142 212.5t212.5 142t258 52.5q180 0 333 -89t242 -242t89 -334t-89 -333.5t-241.5 -241.5t-333.5 -89t-334 89t-242 242t-89 333zM581 664q0 -176 124.5 -300t299.5 -124t299.5 124t124.5 300t-124.5 300t-299.5 124t-299.5 -124t-124.5 -300z " />
<glyph unicode="P" horiz-adv-x="1642" d="M391 0v12v11v1283v11v12h12h11h207h11h206h12v-1q181 -5 308 -134.5t127 -311.5t-127 -312t-308 -135h-12h-206v-412v-23h-11h-207h-11h-12zM632 676h206q86 0 146.5 60.5t60.5 145.5t-60.5 145.5t-146.5 60.5h-206v-412z" />
<glyph unicode="Q" horiz-adv-x="2023" d="M340 664q0 181 89 334t242 242t333 89q135 0 258 -52.5t212.5 -142t142 -212.5t52.5 -258q0 -136 -52.5 -258t-145.5 -214l85 -169h4v-8l4 -8l-4 -2v-5h-9l-7 -4l-2 4h-209l-7 -4l-2 4h-5v9l-28 56q-138 -65 -287 -65q-181 0 -333.5 89t-241.5 241.5t-89 333.5zM580 664 q0 -115 57 -212.5t154.5 -154.5t212.5 -57q93 0 179 40l-77 155h-4v9l-4 7l4 2v5h8l9 4l2 -4h207l8 4l2 -4h4v-9l12 -24q74 107 74 239q0 115 -57 212.5t-154.5 154.5t-212.5 57t-212.5 -57t-154.5 -154.5t-57 -212.5z" />
<glyph unicode="R" horiz-adv-x="1658" d="M391 0v12v11v1283v11v12h12h11h206h12h206h12v-1q181 -5 308 -134.5t127 -311.5q0 -126 -64.5 -232t-172.5 -163l12 -25l6 -11l215 -428h4v-23h-11h-219h-11v9l-213 426h-199v-412v-23h-12h-206h-11h-12zM632 676h206q86 0 146 60t60 146t-60 146t-146 60h-206v-412z" />
<glyph unicode="S" horiz-adv-x="1581" d="M352 882q0 182 127 312t309 135h11h12h206h11v-11v-207v-23h-11h-206h-12q-85 0 -145.5 -60t-60.5 -146q0 -82 56.5 -141.5t138.5 -64.5v195v11v12h11h12q181 -5 308 -135t127 -312t-127 -312t-308 -135h-12h-315h-11h-12v12v205v12v11h23h304h11q85 0 145.5 60.5 t60.5 146.5q0 82 -56.5 141.5t-137.5 64.5v-195v-23h-12h-11v1q-182 5 -309 134.5t-127 311.5z" />
<glyph unicode="T" horiz-adv-x="1560" d="M324 1090v11v12v195v11v12h23h859h12v-12v-206v-23h-12h-316v-1065v-23h-11h-206h-11h-12v11v12v1065h-303h-23z" />
<glyph unicode="U" horiz-adv-x="1777" d="M387 502v6v5v793v12v11h12h11h207h11v-11v-805v-11q0 -108 76.5 -185t184.5 -77q107 0 183.5 77t76.5 185v804v12v11h11h12h207h11v-11v-805v-11v-18q-7 -202 -152.5 -343t-348.5 -141q-102 0 -195 40t-160 107t-107 160t-40 195z" />
<glyph unicode="V" horiz-adv-x="1755" d="M311 1307v23h12h218h11v-10l315 -945l315 945v10h12h218h11v-23h-3l-432 -1297v-9h-12h-218h-11v9l-433 1297h-3z" />
<glyph unicode="W" horiz-adv-x="2191" d="M309 1327l3 1v4h10l9 3l1 -3h208l9 3l1 -3h3v-9l315 -945l97 289l-214 642h-3v9l-3 9l3 1v4h9l10 3l1 -3h207l10 3l1 -3h3v-10l97 -292l97 293v9h3l1 3l10 -3h208l1 3l9 -3h9v-4l3 -1l-3 -8v-10h-3l-214 -642l97 -290l315 945v10h3l1 3l9 -3h208l1 3l9 -3h10v-4l3 -1 l-3 -9v-9h-3l-433 -1296v-10h-3l-1 -3l-9 3h-214l-10 -3l-1 3h-3v9l-97 293l-97 -292v-10h-3l-1 -3l-10 3h-214l-9 -3l-1 3h-3v10l-432 1296h-4v10z" />
<glyph unicode="X" horiz-adv-x="1589" d="M350 2v23h5l320 641l-321 642h-4v23h12h218h11v-8l206 -413l206 413v8h12h218h11v-23h-4l-321 -641l321 -642h4v-23h-11h-218h-12v9l-206 412l-206 -412v-9h-11h-218h-12z" />
<glyph unicode="Y" horiz-adv-x="1513" d="M299 1306v23h12h217h11v-8l207 -413l182 365l24 47v9h11h218h11v-23h-4l-322 -645v-638v-23h-12h-206h-11h-12v12v11v639l-322 644h-4z" />
<glyph unicode="Z" horiz-adv-x="1622" d="M362 0v23h5l533 1065h-514h-24v12v11v195v12v11h24h859h11v-23h-4l-532 -1066h525h11v-11v-206v-23h-11h-871h-12z" />
<glyph unicode="a" horiz-adv-x="1697" d="M287 1l3 10v9h3l432 1297v9h4v3l10 -3h213l9 3l2 -3h3v-9l432 -1297h3v-10l3 -9l-3 -1v-3h-9l-10 -3l-1 3h-207l-9 -3l-1 3h-3v10l-106 316h-419l-105 -316v-10h-3l-1 -3l-9 3h-208l-1 -3l-10 3h-9v3zM716 564h21h217h21l-129 387z" />
<glyph unicode="b" horiz-adv-x="1613" d="M391 3v11v12v1283v12v11h12h11h207h11q181 -5 308 -135t127 -312q0 -26 -3 -50q101 -60 161 -162t60 -223q0 -182 -127 -312t-308 -135h-12h-206h-11h-207h-11h-12zM632 243h206q85 0 145.5 60.5t60.5 146.5q0 96 -74 158q-60 -77 -148.5 -122t-189.5 -47v-196zM632 679 q82 5 138.5 64t56.5 142q0 82 -57 141.5t-138 64.5v-412z" />
<glyph unicode="c" horiz-adv-x="1609" d="M340 664q0 134 51.5 256t139 211t209 142.5t254.5 55.5h11h12h205h12v-11v-207v-23h-12h-217q-175 0 -299.5 -124t-124.5 -300t124.5 -300t299.5 -124h217h12v-11v-206v-23h-12h-205h-12h-11q-178 3 -328.5 92.5t-238 241t-87.5 330.5z" />
<glyph unicode="d" horiz-adv-x="1634" d="M391 0v12v1294v12v11h23h195h12h11q178 -3 328 -92.5t237.5 -242t87.5 -330.5t-87.5 -330t-237.5 -241.5t-328 -92.5h-11h-119h-88h-11h-12zM632 241q172 5 292.5 128t120.5 295t-120.5 295.5t-292.5 128.5v-847z" />
<glyph unicode="e" horiz-adv-x="1441" d="M391 0v12v11v1283v12v11h12h11h206h12h423h12v-11v-207v-23h-12h-423v-303h314h12v-12v-206v-23h-12h-314v-304h423h12v-11v-206v-23h-12h-435h-206h-11h-12z" />
<glyph unicode="f" horiz-adv-x="1437" d="M391 0v12v11v1283v12v11h12h11h206h12h423h12v-11v-207v-23h-12h-423v-303h423h12v-12v-206v-23h-12h-423v-521v-23h-12h-206h-11h-12z" />
<glyph unicode="g" horiz-adv-x="1626" d="M340 665q0 134 51.5 256t139 211t209 142.5t254.5 55.5h11h12h205h12v-11v-207v-23h-12h-217q-175 0 -299.5 -124.5t-124.5 -299.5q0 -172 120.5 -295t291.5 -128v301v4v5h11h12h206h12v-5v-306v-11v-206v-23h-12h-205h-1h-11h-1h-10h-1q-178 3 -328 93t-237.5 241.5 t-87.5 329.5z" />
<glyph unicode="h" horiz-adv-x="1679" d="M391 0v12v11v1283v12v11h12h11h206h12v-11v-533h412v521v12v11h11h12h207h11v-11v-1295v-23h-11h-207h-12h-11v12v532h-412v-521v-23h-12h-206h-11h-12z" />
<glyph unicode="i" horiz-adv-x="1026" d="M391 2v12v11v1283v11v12h12h11h207h11v-12v-1294v-23h-11h-207h-11h-12z" />
<glyph unicode="j" horiz-adv-x="1394" d="M327 220v11v12v194v12v11h12h11h207h11v-11v-206v-12q0 -40 28.5 -68.5t69.5 -28.5q40 0 68.5 28t28.5 69v1077v12v11h11h12h206h12v-11v-1077v-12v-11q-5 -136 -103.5 -231t-234.5 -95q-137 0 -235.5 95t-103.5 231z" />
<glyph unicode="k" horiz-adv-x="1656" d="M393 2v11v1294v12v11h23h194h12h11v-11v-12v-630h90l214 644v9h11h327h11v-11v-206v-23h-11h-209l-127 -380l14 -29h1l5 -10l323 -646h4v-23h-11h-218h-11v8l-214 426h-199v-411v-23h-11h-206h-11h-12z" />
<glyph unicode="l" horiz-adv-x="1482" d="M391 0v12v11v1283v12v11h12h11h207h11v-11v-1078h533h12v-11v-206v-23h-12h-544h-207h-11h-12z" />
<glyph unicode="m" horiz-adv-x="2113" d="M391 0v12v11v1283v12v11h12h11h202h9h7v-7l423 -530l424 530v7h6h10h7h207h12v-11v-1295v-23h-12h-207h-11h-12v12v944l-303 -404v-7h-6l-3 -5l-6 5h-211l-6 -5l-3 5h-6v7l-303 404v-933v-23h-12h-206h-11h-12z" />
<glyph unicode="n" horiz-adv-x="1679" d="M391 0v12v11v1283v12v11h12h11h203l6 5l3 -5h6v-7l413 -516v500v12v11h11h12h206h11v-11v-1295v-23h-11h-206h-12h-11v12v533h-94l-6 -5l-4 5h-5v7l-304 404v-933v-23h-11h-207h-11h-12z" />
<glyph unicode="o" horiz-adv-x="2017" d="M340 664q0 135 52.5 258t142 212.5t212.5 142t258 52.5q180 0 333 -89t242 -242t89 -334t-89 -333.5t-241.5 -241.5t-333.5 -89t-334 89t-242 242t-89 333zM581 664q0 -176 124.5 -300t299.5 -124t299.5 124t124.5 300t-124.5 300t-299.5 124t-299.5 -124t-124.5 -300z " />
<glyph unicode="p" horiz-adv-x="1642" d="M391 0v12v11v1283v11v12h12h11h207h11h206h12v-1q181 -5 308 -134.5t127 -311.5t-127 -312t-308 -135h-12h-206v-412v-23h-11h-207h-11h-12zM632 676h206q86 0 146.5 60.5t60.5 145.5t-60.5 145.5t-146.5 60.5h-206v-412z" />
<glyph unicode="q" horiz-adv-x="2023" d="M340 664q0 181 89 334t242 242t333 89q135 0 258 -52.5t212.5 -142t142 -212.5t52.5 -258q0 -136 -52.5 -258t-145.5 -214l85 -169h4v-8l4 -8l-4 -2v-5h-9l-7 -4l-2 4h-209l-7 -4l-2 4h-5v9l-28 56q-138 -65 -287 -65q-181 0 -333.5 89t-241.5 241.5t-89 333.5zM580 664 q0 -115 57 -212.5t154.5 -154.5t212.5 -57q93 0 179 40l-77 155h-4v9l-4 7l4 2v5h8l9 4l2 -4h207l8 4l2 -4h4v-9l12 -24q74 107 74 239q0 115 -57 212.5t-154.5 154.5t-212.5 57t-212.5 -57t-154.5 -154.5t-57 -212.5z" />
<glyph unicode="r" horiz-adv-x="1658" d="M391 0v12v11v1283v11v12h12h11h206h12h206h12v-1q181 -5 308 -134.5t127 -311.5q0 -126 -64.5 -232t-172.5 -163l12 -25l6 -11l215 -428h4v-23h-11h-219h-11v9l-213 426h-199v-412v-23h-12h-206h-11h-12zM632 676h206q86 0 146 60t60 146t-60 146t-146 60h-206v-412z" />
<glyph unicode="s" horiz-adv-x="1581" d="M352 882q0 182 127 312t309 135h11h12h206h11v-11v-207v-23h-11h-206h-12q-85 0 -145.5 -60t-60.5 -146q0 -82 56.5 -141.5t138.5 -64.5v195v11v12h11h12q181 -5 308 -135t127 -312t-127 -312t-308 -135h-12h-315h-11h-12v12v205v12v11h23h304h11q85 0 145.5 60.5 t60.5 146.5q0 82 -56.5 141.5t-137.5 64.5v-195v-23h-12h-11v1q-182 5 -309 134.5t-127 311.5z" />
<glyph unicode="t" horiz-adv-x="1560" d="M324 1090v11v12v195v11v12h23h859h12v-12v-206v-23h-12h-316v-1065v-23h-11h-206h-11h-12v11v12v1065h-303h-23z" />
<glyph unicode="u" horiz-adv-x="1777" d="M387 502v6v5v793v12v11h12h11h207h11v-11v-805v-11q0 -108 76.5 -185t184.5 -77q107 0 183.5 77t76.5 185v804v12v11h11h12h207h11v-11v-805v-11v-18q-7 -202 -152.5 -343t-348.5 -141q-102 0 -195 40t-160 107t-107 160t-40 195z" />
<glyph unicode="v" horiz-adv-x="1755" d="M311 1307v23h12h218h11v-10l315 -945l315 945v10h12h218h11v-23h-3l-432 -1297v-9h-12h-218h-11v9l-433 1297h-3z" />
<glyph unicode="w" horiz-adv-x="2191" d="M309 1327l3 1v4h10l9 3l1 -3h208l9 3l1 -3h3v-9l315 -945l97 289l-214 642h-3v9l-3 9l3 1v4h9l10 3l1 -3h207l10 3l1 -3h3v-10l97 -292l97 293v9h3l1 3l10 -3h208l1 3l9 -3h9v-4l3 -1l-3 -8v-10h-3l-214 -642l97 -290l315 945v10h3l1 3l9 -3h208l1 3l9 -3h10v-4l3 -1 l-3 -9v-9h-3l-433 -1296v-10h-3l-1 -3l-9 3h-214l-10 -3l-1 3h-3v9l-97 293l-97 -292v-10h-3l-1 -3l-10 3h-214l-9 -3l-1 3h-3v10l-432 1296h-4v10z" />
<glyph unicode="x" horiz-adv-x="1589" d="M350 2v23h5l320 641l-321 642h-4v23h12h218h11v-8l206 -413l206 413v8h12h218h11v-23h-4l-321 -641l321 -642h4v-23h-11h-218h-12v9l-206 412l-206 -412v-9h-11h-218h-12z" />
<glyph unicode="y" horiz-adv-x="1513" d="M299 1306v23h12h217h11v-8l207 -413l182 365l24 47v9h11h218h11v-23h-4l-322 -645v-638v-23h-12h-206h-11h-12v12v11v639l-322 644h-4z" />
<glyph unicode="z" horiz-adv-x="1622" d="M362 0v23h5l533 1065h-514h-24v12v11v195v12v11h24h859h11v-23h-4l-532 -1066h525h11v-11v-206v-23h-11h-871h-12z" />
<glyph unicode="&#xab;" horiz-adv-x="2048" d="M305 217v12v218v11h10l643 215v3h23v-12v-217v-12h-10l-291 -97l291 -98h10v-11v-217v-12h-23v3l-643 214h-10zM1067 217v12v218v11h10l643 215v3h23v-12v-217v-12h-10l-292 -97l292 -98h10v-11v-217v-12h-23v3l-643 214h-10z" />
<glyph unicode="&#xad;" horiz-adv-x="2048" d="M686 450v12v11v195v12v11h11h12h642h11v-11v-207v-23h-11h-642h-12h-11z" />
<glyph unicode="&#xbb;" horiz-adv-x="2048" d="M305 0h23v3l643 214h10v12v218v11h-10l-643 215v3h-23v-12v-217v-12h10l292 -97l-292 -98h-10v-11v-217v-12zM1067 0h23v3l643 214h10v12v218v11h-10l-643 215v3h-23v-12v-217v-12h10l291 -97l-291 -98h-10v-11v-217v-12z" />
<glyph unicode="&#xc0;" d="M99 1l3 10v9h3l432 1297v9h3l1 3l10 -3h213l9 3l2 -3h3v-9l432 -1297h3v-10l3 -9l-3 -1v-3h-9l-10 -3l-1 3h-207l-9 -3l-1 3h-3v10l-106 316h-419l-105 -316v-10h-3l-1 -3l-10 3h-207l-1 -3l-10 3h-9v3zM307 1446v11v12v72v12v11h11h12h642h11v-11v-84v-23h-11h-642h-12 h-11zM528 564h21h217h21l-129 387z" />
<glyph unicode="&#xc1;" d="M99 1l3 10v9h3l432 1297v9h3l1 3l10 -3h213l9 3l2 -3h3v-9l432 -1297h3v-10l3 -9l-3 -1v-3h-9l-10 -3l-1 3h-207l-9 -3l-1 3h-3v10l-106 316h-419l-105 -316v-10h-3l-1 -3l-10 3h-207l-1 -3l-10 3h-9v3zM307 1446v11v12v72v12v11h11h12h642h11v-11v-84v-23h-11h-642h-12 h-11zM528 564h21h217h21l-129 387z" />
<glyph unicode="&#xc2;" d="M99 1l3 10v9h3l432 1297v9h3l1 3l10 -3h213l9 3l2 -3h3v-9l432 -1297h3v-10l3 -9l-3 -1v-3h-9l-10 -3l-1 3h-207l-9 -3l-1 3h-3v10l-106 316h-419l-105 -316v-10h-3l-1 -3l-10 3h-207l-1 -3l-10 3h-9v3zM307 1446v11v12v72v12v11h11h12h642h11v-11v-84v-23h-11h-642h-12 h-11zM528 564h21h217h21l-129 387z" />
<glyph unicode="&#xc3;" d="M99 1l3 10v9h3l432 1297v9h3l1 3l10 -3h213l9 3l2 -3h3v-9l432 -1297h3v-10l3 -9l-3 -1v-3h-9l-10 -3l-1 3h-207l-9 -3l-1 3h-3v10l-106 316h-419l-105 -316v-10h-3l-1 -3l-10 3h-207l-1 -3l-10 3h-9v3zM307 1446v11v12v72v12v11h11h12h642h11v-11v-84v-23h-11h-642h-12 h-11zM528 564h21h217h21l-129 387z" />
<glyph unicode="&#xc4;" d="M99 1l3 10v9h3l432 1297v9h3l1 3l10 -3h213l9 3l2 -3h3v-9l432 -1297h3v-10l3 -9l-3 -1v-3h-9l-10 -3l-1 3h-207l-9 -3l-1 3h-3v10l-106 316h-419l-105 -316v-10h-3l-1 -3l-10 3h-207l-1 -3l-10 3h-9v3zM307 1446v11v12v72v12v11h11h12h642h11v-11v-84v-23h-11h-642h-12 h-11zM528 564h21h217h21l-129 387z" />
<glyph unicode="&#xc5;" d="M99 1l3 10v9h3l432 1297v9h3l1 3l10 -3h213l9 3l2 -3h3v-9l432 -1297h3v-10l3 -9l-3 -1v-3h-9l-10 -3l-1 3h-207l-9 -3l-1 3h-3v10l-106 316h-419l-105 -316v-10h-3l-1 -3l-10 3h-207l-1 -3l-10 3h-9v3zM307 1446v11v12v72v12v11h11h12h642h11v-11v-84v-23h-11h-642h-12 h-11zM528 564h21h217h21l-129 387z" />
<glyph unicode="&#xc8;" horiz-adv-x="962" d="M141 1445v12v11v73v11v12h12h11h642h12v-12v-84v-23h-12h-642h-11h-12zM152 0v12v11v1283v12v11h11h12h205h12h424h11v-11v-207v-23h-11h-424v-303h315h11v-12v-206v-23h-11h-315v-304h424h11v-11v-206v-23h-11h-436h-205h-12h-11z" />
<glyph unicode="&#xc9;" horiz-adv-x="962" d="M141 1445v12v11v73v11v12h12h11h642h12v-12v-84v-23h-12h-642h-11h-12zM152 0v12v11v1283v12v11h11h12h205h12h424h11v-11v-207v-23h-11h-424v-303h315h11v-12v-206v-23h-11h-315v-304h424h11v-11v-206v-23h-11h-436h-205h-12h-11z" />
<glyph unicode="&#xca;" horiz-adv-x="962" d="M141 1445v12v11v73v11v12h12h11h642h12v-12v-84v-23h-12h-642h-11h-12zM152 0v12v11v1283v12v11h11h12h205h12h424h11v-11v-207v-23h-11h-424v-303h315h11v-12v-206v-23h-11h-315v-304h424h11v-11v-206v-23h-11h-436h-205h-12h-11z" />
<glyph unicode="&#xcb;" horiz-adv-x="962" d="M141 1445v12v11v73v11v12h12h11h642h12v-12v-84v-23h-12h-642h-11h-12zM152 0v12v11v1283v12v11h11h12h205h12h424h11v-11v-207v-23h-11h-424v-303h315h11v-12v-206v-23h-11h-315v-304h424h11v-11v-206v-23h-11h-436h-205h-12h-11z" />
<glyph unicode="&#xcc;" horiz-adv-x="548" d="M152 2v12v11v1283v11v12h11h12h206h12v-12v-1294v-23h-12h-206h-12h-11zM152 1445v12v11v73v11v12h11h12h207h12v-12v-84v-23h-12h-207h-12h-11z" />
<glyph unicode="&#xcd;" horiz-adv-x="548" d="M152 2v12v11v1283v11v12h11h12h206h12v-12v-1294v-23h-12h-206h-12h-11zM152 1445v12v11v73v11v12h11h12h207h12v-12v-84v-23h-12h-207h-12h-11z" />
<glyph unicode="&#xce;" horiz-adv-x="548" d="M152 2v12v11v1283v11v12h11h12h206h12v-12v-1294v-23h-12h-206h-12h-11zM152 1445v12v11v73v11v12h11h12h207h12v-12v-84v-23h-12h-207h-12h-11z" />
<glyph unicode="&#xcf;" horiz-adv-x="548" d="M152 2v12v11v1283v11v12h11h12h206h12v-12v-1294v-23h-12h-206h-12h-11zM152 1445v12v11v73v11v12h11h12h207h12v-12v-84v-23h-12h-207h-12h-11z" />
<glyph unicode="&#xd2;" horiz-adv-x="1566" d="M111 664q0 135 52.5 258t142 212.5t212.5 142t258 52.5q180 0 333 -89t242 -242t89 -334t-89 -333.5t-241.5 -241.5t-333.5 -89t-334 89t-242 242t-89 333zM352 664q0 -115 57 -212.5t154.5 -154.5t212.5 -57t212.5 57t154.5 154.5t57 212.5t-57 212.5t-154.5 154.5 t-212.5 57t-212.5 -57t-154.5 -154.5t-57 -212.5zM444 1445v12v11v73v11v12h11h12h642h11v-12v-84v-23h-11h-642h-12h-11z" />
<glyph unicode="&#xd3;" horiz-adv-x="1566" d="M111 664q0 135 52.5 258t142 212.5t212.5 142t258 52.5q180 0 333 -89t242 -242t89 -334t-89 -333.5t-241.5 -241.5t-333.5 -89t-334 89t-242 242t-89 333zM352 664q0 -115 57 -212.5t154.5 -154.5t212.5 -57t212.5 57t154.5 154.5t57 212.5t-57 212.5t-154.5 154.5 t-212.5 57t-212.5 -57t-154.5 -154.5t-57 -212.5zM444 1445v12v11v73v11v12h11h12h642h11v-12v-84v-23h-11h-642h-12h-11z" />
<glyph unicode="&#xd4;" horiz-adv-x="1566" d="M111 664q0 135 52.5 258t142 212.5t212.5 142t258 52.5q180 0 333 -89t242 -242t89 -334t-89 -333.5t-241.5 -241.5t-333.5 -89t-334 89t-242 242t-89 333zM352 664q0 -115 57 -212.5t154.5 -154.5t212.5 -57t212.5 57t154.5 154.5t57 212.5t-57 212.5t-154.5 154.5 t-212.5 57t-212.5 -57t-154.5 -154.5t-57 -212.5zM444 1445v12v11v73v11v12h11h12h642h11v-12v-84v-23h-11h-642h-12h-11z" />
<glyph unicode="&#xd5;" horiz-adv-x="1566" d="M111 664q0 135 52.5 258t142 212.5t212.5 142t258 52.5q180 0 333 -89t242 -242t89 -334t-89 -333.5t-241.5 -241.5t-333.5 -89t-334 89t-242 242t-89 333zM352 664q0 -115 57 -212.5t154.5 -154.5t212.5 -57t212.5 57t154.5 154.5t57 212.5t-57 212.5t-154.5 154.5 t-212.5 57t-212.5 -57t-154.5 -154.5t-57 -212.5zM444 1445v12v11v73v11v12h11h12h642h11v-12v-84v-23h-11h-642h-12h-11z" />
<glyph unicode="&#xd6;" horiz-adv-x="1566" d="M111 664q0 135 52.5 258t142 212.5t212.5 142t258 52.5q180 0 333 -89t242 -242t89 -334t-89 -333.5t-241.5 -241.5t-333.5 -89t-334 89t-242 242t-89 333zM352 664q0 -115 57 -212.5t154.5 -154.5t212.5 -57t212.5 57t154.5 154.5t57 212.5t-57 212.5t-154.5 154.5 t-212.5 57t-212.5 -57t-154.5 -154.5t-57 -212.5zM444 1445v12v11v73v11v12h11h12h642h11v-12v-84v-23h-11h-642h-12h-11z" />
<glyph unicode="&#xd9;" horiz-adv-x="1294" d="M141 502v6v5v793v12v11h12h11h207h11v-11v-805v-11q0 -108 76.5 -185t184.5 -77q107 0 183.5 77t76.5 185v804v12v11h12h11h207h11v-11v-805v-11v-18q-7 -202 -152.5 -343t-348.5 -141q-102 0 -195 40t-160 107t-107 160t-40 195zM298 1445v12v11v73v11v12h12h11h642h12 v-12v-84v-23h-12h-642h-11h-12z" />
<glyph unicode="&#xda;" horiz-adv-x="1294" d="M141 502v6v5v793v12v11h12h11h207h11v-11v-805v-11q0 -108 76.5 -185t184.5 -77q107 0 183.5 77t76.5 185v804v12v11h12h11h207h11v-11v-805v-11v-18q-7 -202 -152.5 -343t-348.5 -141q-102 0 -195 40t-160 107t-107 160t-40 195zM298 1445v12v11v73v11v12h12h11h642h12 v-12v-84v-23h-12h-642h-11h-12z" />
<glyph unicode="&#xdb;" horiz-adv-x="1294" d="M141 502v6v5v793v12v11h12h11h207h11v-11v-805v-11q0 -108 76.5 -185t184.5 -77q107 0 183.5 77t76.5 185v804v12v11h12h11h207h11v-11v-805v-11v-18q-7 -202 -152.5 -343t-348.5 -141q-102 0 -195 40t-160 107t-107 160t-40 195zM298 1445v12v11v73v11v12h12h11h642h12 v-12v-84v-23h-12h-642h-11h-12z" />
<glyph unicode="&#xdc;" horiz-adv-x="1294" d="M141 502v6v5v793v12v11h12h11h207h11v-11v-805v-11q0 -108 76.5 -185t184.5 -77q107 0 183.5 77t76.5 185v804v12v11h12h11h207h11v-11v-805v-11v-18q-7 -202 -152.5 -343t-348.5 -141q-102 0 -195 40t-160 107t-107 160t-40 195zM298 1445v12v11v73v11v12h12h11h642h12 v-12v-84v-23h-12h-642h-11h-12z" />
<glyph unicode="&#xe0;" d="M99 1l3 10v9h3l432 1297v9h3l1 3l10 -3h213l9 3l2 -3h3v-9l432 -1297h3v-10l3 -9l-3 -1v-3h-9l-10 -3l-1 3h-207l-9 -3l-1 3h-3v10l-106 316h-419l-105 -316v-10h-3l-1 -3l-10 3h-207l-1 -3l-10 3h-9v3zM307 1446v11v12v72v12v11h11h12h642h11v-11v-84v-23h-11h-642h-12 h-11zM528 564h21h217h21l-129 387z" />
<glyph unicode="&#xe1;" d="M99 1l3 10v9h3l432 1297v9h3l1 3l10 -3h213l9 3l2 -3h3v-9l432 -1297h3v-10l3 -9l-3 -1v-3h-9l-10 -3l-1 3h-207l-9 -3l-1 3h-3v10l-106 316h-419l-105 -316v-10h-3l-1 -3l-10 3h-207l-1 -3l-10 3h-9v3zM307 1446v11v12v72v12v11h11h12h642h11v-11v-84v-23h-11h-642h-12 h-11zM528 564h21h217h21l-129 387z" />
<glyph unicode="&#xe2;" d="M99 1l3 10v9h3l432 1297v9h3l1 3l10 -3h213l9 3l2 -3h3v-9l432 -1297h3v-10l3 -9l-3 -1v-3h-9l-10 -3l-1 3h-207l-9 -3l-1 3h-3v10l-106 316h-419l-105 -316v-10h-3l-1 -3l-10 3h-207l-1 -3l-10 3h-9v3zM307 1446v11v12v72v12v11h11h12h642h11v-11v-84v-23h-11h-642h-12 h-11zM528 564h21h217h21l-129 387z" />
<glyph unicode="&#xe3;" d="M99 1l3 10v9h3l432 1297v9h3l1 3l10 -3h213l9 3l2 -3h3v-9l432 -1297h3v-10l3 -9l-3 -1v-3h-9l-10 -3l-1 3h-207l-9 -3l-1 3h-3v10l-106 316h-419l-105 -316v-10h-3l-1 -3l-10 3h-207l-1 -3l-10 3h-9v3zM307 1446v11v12v72v12v11h11h12h642h11v-11v-84v-23h-11h-642h-12 h-11zM528 564h21h217h21l-129 387z" />
<glyph unicode="&#xe4;" d="M99 1l3 10v9h3l432 1297v9h3l1 3l10 -3h213l9 3l2 -3h3v-9l432 -1297h3v-10l3 -9l-3 -1v-3h-9l-10 -3l-1 3h-207l-9 -3l-1 3h-3v10l-106 316h-419l-105 -316v-10h-3l-1 -3l-10 3h-207l-1 -3l-10 3h-9v3zM307 1446v11v12v72v12v11h11h12h642h11v-11v-84v-23h-11h-642h-12 h-11zM528 564h21h217h21l-129 387z" />
<glyph unicode="&#xe5;" d="M99 1l3 10v9h3l432 1297v9h3l1 3l10 -3h213l9 3l2 -3h3v-9l432 -1297h3v-10l3 -9l-3 -1v-3h-9l-10 -3l-1 3h-207l-9 -3l-1 3h-3v10l-106 316h-419l-105 -316v-10h-3l-1 -3l-10 3h-207l-1 -3l-10 3h-9v3zM307 1446v11v12v72v12v11h11h12h642h11v-11v-84v-23h-11h-642h-12 h-11zM528 564h21h217h21l-129 387z" />
<glyph unicode="&#xe8;" horiz-adv-x="962" d="M141 1445v12v11v73v11v12h12h11h642h12v-12v-84v-23h-12h-642h-11h-12zM152 0v12v11v1283v12v11h11h12h205h12h424h11v-11v-207v-23h-11h-424v-303h315h11v-12v-206v-23h-11h-315v-304h424h11v-11v-206v-23h-11h-436h-205h-12h-11z" />
<glyph unicode="&#xe9;" horiz-adv-x="962" d="M141 1445v12v11v73v11v12h12h11h642h12v-12v-84v-23h-12h-642h-11h-12zM152 0v12v11v1283v12v11h11h12h205h12h424h11v-11v-207v-23h-11h-424v-303h315h11v-12v-206v-23h-11h-315v-304h424h11v-11v-206v-23h-11h-436h-205h-12h-11z" />
<glyph unicode="&#xea;" horiz-adv-x="962" d="M141 1445v12v11v73v11v12h12h11h642h12v-12v-84v-23h-12h-642h-11h-12zM152 0v12v11v1283v12v11h11h12h205h12h424h11v-11v-207v-23h-11h-424v-303h315h11v-12v-206v-23h-11h-315v-304h424h11v-11v-206v-23h-11h-436h-205h-12h-11z" />
<glyph unicode="&#xeb;" horiz-adv-x="962" d="M141 1445v12v11v73v11v12h12h11h642h12v-12v-84v-23h-12h-642h-11h-12zM152 0v12v11v1283v12v11h11h12h205h12h424h11v-11v-207v-23h-11h-424v-303h315h11v-12v-206v-23h-11h-315v-304h424h11v-11v-206v-23h-11h-436h-205h-12h-11z" />
<glyph unicode="&#xec;" horiz-adv-x="548" d="M152 2v12v11v1283v11v12h11h12h206h12v-12v-1294v-23h-12h-206h-12h-11zM152 1445v12v11v73v11v12h11h12h207h12v-12v-84v-23h-12h-207h-12h-11z" />
<glyph unicode="&#xed;" horiz-adv-x="548" d="M152 2v12v11v1283v11v12h11h12h206h12v-12v-1294v-23h-12h-206h-12h-11zM152 1445v12v11v73v11v12h11h12h207h12v-12v-84v-23h-12h-207h-12h-11z" />
<glyph unicode="&#xee;" horiz-adv-x="548" d="M152 2v12v11v1283v11v12h11h12h206h12v-12v-1294v-23h-12h-206h-12h-11zM152 1445v12v11v73v11v12h11h12h207h12v-12v-84v-23h-12h-207h-12h-11z" />
<glyph unicode="&#xef;" horiz-adv-x="548" d="M152 2v12v11v1283v11v12h11h12h206h12v-12v-1294v-23h-12h-206h-12h-11zM152 1445v12v11v73v11v12h11h12h207h12v-12v-84v-23h-12h-207h-12h-11z" />
<glyph unicode="&#xf2;" horiz-adv-x="1566" d="M111 664q0 135 52.5 258t142 212.5t212.5 142t258 52.5q180 0 333 -89t242 -242t89 -334t-89 -333.5t-241.5 -241.5t-333.5 -89t-334 89t-242 242t-89 333zM352 664q0 -115 57 -212.5t154.5 -154.5t212.5 -57t212.5 57t154.5 154.5t57 212.5t-57 212.5t-154.5 154.5 t-212.5 57t-212.5 -57t-154.5 -154.5t-57 -212.5zM444 1445v12v11v73v11v12h11h12h642h11v-12v-84v-23h-11h-642h-12h-11z" />
<glyph unicode="&#xf3;" horiz-adv-x="1566" d="M111 664q0 135 52.5 258t142 212.5t212.5 142t258 52.5q180 0 333 -89t242 -242t89 -334t-89 -333.5t-241.5 -241.5t-333.5 -89t-334 89t-242 242t-89 333zM352 664q0 -115 57 -212.5t154.5 -154.5t212.5 -57t212.5 57t154.5 154.5t57 212.5t-57 212.5t-154.5 154.5 t-212.5 57t-212.5 -57t-154.5 -154.5t-57 -212.5zM444 1445v12v11v73v11v12h11h12h642h11v-12v-84v-23h-11h-642h-12h-11z" />
<glyph unicode="&#xf4;" horiz-adv-x="1566" d="M111 664q0 135 52.5 258t142 212.5t212.5 142t258 52.5q180 0 333 -89t242 -242t89 -334t-89 -333.5t-241.5 -241.5t-333.5 -89t-334 89t-242 242t-89 333zM352 664q0 -115 57 -212.5t154.5 -154.5t212.5 -57t212.5 57t154.5 154.5t57 212.5t-57 212.5t-154.5 154.5 t-212.5 57t-212.5 -57t-154.5 -154.5t-57 -212.5zM444 1445v12v11v73v11v12h11h12h642h11v-12v-84v-23h-11h-642h-12h-11z" />
<glyph unicode="&#xf5;" horiz-adv-x="1566" d="M111 664q0 135 52.5 258t142 212.5t212.5 142t258 52.5q180 0 333 -89t242 -242t89 -334t-89 -333.5t-241.5 -241.5t-333.5 -89t-334 89t-242 242t-89 333zM352 664q0 -115 57 -212.5t154.5 -154.5t212.5 -57t212.5 57t154.5 154.5t57 212.5t-57 212.5t-154.5 154.5 t-212.5 57t-212.5 -57t-154.5 -154.5t-57 -212.5zM444 1445v12v11v73v11v12h11h12h642h11v-12v-84v-23h-11h-642h-12h-11z" />
<glyph unicode="&#xf6;" horiz-adv-x="1566" d="M111 664q0 135 52.5 258t142 212.5t212.5 142t258 52.5q180 0 333 -89t242 -242t89 -334t-89 -333.5t-241.5 -241.5t-333.5 -89t-334 89t-242 242t-89 333zM352 664q0 -115 57 -212.5t154.5 -154.5t212.5 -57t212.5 57t154.5 154.5t57 212.5t-57 212.5t-154.5 154.5 t-212.5 57t-212.5 -57t-154.5 -154.5t-57 -212.5zM444 1445v12v11v73v11v12h11h12h642h11v-12v-84v-23h-11h-642h-12h-11z" />
<glyph unicode="&#xf9;" horiz-adv-x="1294" d="M141 502v6v5v793v12v11h12h11h207h11v-11v-805v-11q0 -108 76.5 -185t184.5 -77q107 0 183.5 77t76.5 185v804v12v11h12h11h207h11v-11v-805v-11v-18q-7 -202 -152.5 -343t-348.5 -141q-102 0 -195 40t-160 107t-107 160t-40 195zM298 1445v12v11v73v11v12h12h11h642h12 v-12v-84v-23h-12h-642h-11h-12z" />
<glyph unicode="&#xfa;" horiz-adv-x="1294" d="M141 502v6v5v793v12v11h12h11h207h11v-11v-805v-11q0 -108 76.5 -185t184.5 -77q107 0 183.5 77t76.5 185v804v12v11h12h11h207h11v-11v-805v-11v-18q-7 -202 -152.5 -343t-348.5 -141q-102 0 -195 40t-160 107t-107 160t-40 195zM298 1445v12v11v73v11v12h12h11h642h12 v-12v-84v-23h-12h-642h-11h-12z" />
<glyph unicode="&#xfb;" horiz-adv-x="1294" d="M141 502v6v5v793v12v11h12h11h207h11v-11v-805v-11q0 -108 76.5 -185t184.5 -77q107 0 183.5 77t76.5 185v804v12v11h12h11h207h11v-11v-805v-11v-18q-7 -202 -152.5 -343t-348.5 -141q-102 0 -195 40t-160 107t-107 160t-40 195zM298 1445v12v11v73v11v12h12h11h642h12 v-12v-84v-23h-12h-642h-11h-12z" />
<glyph unicode="&#xfc;" horiz-adv-x="1294" d="M141 502v6v5v793v12v11h12h11h207h11v-11v-805v-11q0 -108 76.5 -185t184.5 -77q107 0 183.5 77t76.5 185v804v12v11h12h11h207h11v-11v-805v-11v-18q-7 -202 -152.5 -343t-348.5 -141q-102 0 -195 40t-160 107t-107 160t-40 195zM298 1445v12v11v73v11v12h12h11h642h12 v-12v-84v-23h-12h-642h-11h-12z" />
<glyph unicode="&#x2000;" horiz-adv-x="782" />
<glyph unicode="&#x2001;" horiz-adv-x="1564" />
<glyph unicode="&#x2002;" horiz-adv-x="782" />
<glyph unicode="&#x2003;" horiz-adv-x="1564" />
<glyph unicode="&#x2004;" horiz-adv-x="521" />
<glyph unicode="&#x2005;" horiz-adv-x="391" />
<glyph unicode="&#x2006;" horiz-adv-x="260" />
<glyph unicode="&#x2007;" horiz-adv-x="260" />
<glyph unicode="&#x2008;" horiz-adv-x="195" />
<glyph unicode="&#x2009;" horiz-adv-x="312" />
<glyph unicode="&#x200a;" horiz-adv-x="86" />
<glyph unicode="&#x2010;" horiz-adv-x="2048" d="M686 450v12v11v195v12v11h11h12h642h11v-11v-207v-23h-11h-642h-12h-11z" />
<glyph unicode="&#x2011;" horiz-adv-x="2048" d="M686 450v12v11v195v12v11h11h12h642h11v-11v-207v-23h-11h-642h-12h-11z" />
<glyph unicode="&#x2012;" horiz-adv-x="2048" d="M686 450v12v11v195v12v11h11h12h642h11v-11v-207v-23h-11h-642h-12h-11z" />
<glyph unicode="&#x2013;" horiz-adv-x="2396" d="M686 450v12v11v195v12v11h17h18h972h17v-11v-207v-23h-17h-972h-18h-17z" />
<glyph unicode="&#x2014;" horiz-adv-x="3420" d="M686 450v12v11v195v12v11h33h37h1945h33v-11v-207v-23h-33h-1945h-37h-33z" />
<glyph unicode="&#x202f;" horiz-adv-x="312" />
<glyph unicode="&#x205f;" horiz-adv-x="391" />
<glyph unicode="&#x25fc;" horiz-adv-x="1331" d="M0 0v1331h1331v-1331h-1331z" />
</font>
</defs>
</svg>
